<svg width="301" height="301" viewBox="0 0 301 301" fill="none" xmlns="http://www.w3.org/2000/svg">
<path d="M207.672 277.701H291.185" stroke="#302F31" stroke-miterlimit="10" stroke-linecap="round" stroke-linejoin="round"/>
<path d="M15.3828 277.701H202.203" stroke="#302F31" stroke-miterlimit="10" stroke-linecap="round" stroke-linejoin="round"/>
<path d="M20.2916 153.873C20.2916 153.873 18.233 159.535 13.8584 160.307C9.48378 161.079 1.76358 152.587 6.65298 148.212C11.5424 143.838 18.233 150.786 20.2916 153.873Z" fill="#2DD4BF" stroke="#302F31" stroke-miterlimit="10" stroke-linecap="round" stroke-linejoin="round"/>
<path d="M26.9791 126.082C26.9791 126.082 20.5459 141.779 23.1193 149.5C25.6927 157.22 41.6474 162.881 46.2794 152.845C50.9113 142.809 40.6177 128.656 36.7579 125.568C32.8975 122.479 28.2655 123.509 26.9791 126.082Z" fill="#2DD4BF" stroke="#302F31" stroke-miterlimit="10" stroke-linecap="round" stroke-linejoin="round"/>
<path d="M64.5524 132.773C64.5524 132.773 53.4872 142.809 52.2002 152.845C50.9132 162.881 58.376 166.484 66.0962 165.197C73.8164 163.91 77.6762 144.353 75.3602 135.347C73.0442 126.339 64.5524 132.773 64.5524 132.773Z" fill="#2DD4BF" stroke="#302F31" stroke-miterlimit="10" stroke-linecap="round" stroke-linejoin="round"/>
<path d="M66.6087 188.356C66.6087 188.356 54.2565 188.871 53.7423 194.79C53.2275 200.709 59.1465 201.995 65.0649 196.848C70.9833 191.701 71.7549 188.613 66.6087 188.356Z" fill="#2DD4BF" stroke="#302F31" stroke-miterlimit="10" stroke-linecap="round" stroke-linejoin="round"/>
<path d="M53.9453 196.2C53.9453 196.2 63.6803 191.746 68.0639 190.973" stroke="#302F31" stroke-miterlimit="10"/>
<path d="M69.3615 227.084C69.3615 227.084 60.2883 218.687 55.7283 222.494C51.1677 226.302 54.4281 231.407 62.2503 231.976C70.0731 232.546 72.8073 230.916 69.3615 227.084Z" fill="#2DD4BF" stroke="#302F31" stroke-miterlimit="10" stroke-linecap="round" stroke-linejoin="round"/>
<path d="M54.8711 223.634C54.8711 223.634 64.8923 227.398 68.5319 229.962" stroke="#302F31" stroke-miterlimit="10"/>
<path d="M21.5046 224.611C21.5046 224.611 34.0116 213.036 40.2984 218.284C46.5852 223.533 42.0912 230.57 31.3074 231.354C20.5242 232.14 16.7544 229.893 21.5046 224.611Z" fill="#2DD4BF" stroke="#302F31" stroke-miterlimit="10" stroke-linecap="round" stroke-linejoin="round"/>
<path d="M41.4794 219.855C41.4794 219.855 27.665 225.044 22.6484 228.578" stroke="#302F31" stroke-miterlimit="10"/>
<path d="M35.9878 200.709C35.9878 200.709 34.7014 206.885 30.0694 209.201C25.4374 211.517 17.2024 206.627 21.5776 199.164C25.9516 191.702 33.6718 197.621 35.9878 200.709Z" fill="#2DD4BF" stroke="#302F31" stroke-miterlimit="10" stroke-linecap="round" stroke-linejoin="round"/>
<path d="M25.1791 181.409C25.1791 181.409 22.8631 176.262 13.8565 179.608C4.8499 182.953 1.2469 188.1 6.9085 189.901C12.5695 191.702 25.1791 181.409 25.1791 181.409Z" fill="#2DD4BF" stroke="#302F31" stroke-miterlimit="10" stroke-linecap="round" stroke-linejoin="round"/>
<path d="M23.4527 181.174C23.4527 181.174 13.9115 182.205 8.75391 186.589" stroke="#302F31" stroke-miterlimit="10"/>
<path d="M50.9141 119.648C50.9141 119.648 52.4579 123.251 55.5461 122.479C58.6337 121.708 59.4059 117.075 64.2953 118.362C69.1847 119.649 73.3019 125.31 73.3019 122.737C73.3019 120.163 67.1261 113.473 60.1781 113.473C53.2301 113.473 51.1709 116.303 50.9141 119.648Z" fill="#2DD4BF" stroke="#302F31" stroke-miterlimit="10" stroke-linecap="round" stroke-linejoin="round"/>
<path d="M25.1797 181.409C25.1797 181.409 36.2605 179.282 40.8745 191.587C41.3275 192.794 41.7097 194.057 42.0313 195.352" stroke="#302F31" stroke-miterlimit="10"/>
<path d="M71.4219 169.488C71.4219 169.488 73.7379 164.341 82.7445 167.687C91.7511 171.033 95.3535 176.179 89.6925 177.98C84.0315 179.781 71.4219 169.488 71.4219 169.488Z" fill="#2DD4BF" stroke="#302F31" stroke-miterlimit="10" stroke-linecap="round" stroke-linejoin="round"/>
<path d="M73.4805 169.828C73.4805 169.828 82.7637 169.312 87.1473 174.727" stroke="#302F31" stroke-miterlimit="10"/>
<path d="M71.4243 169.489C71.4243 169.489 67.7511 168.784 63.7539 170.534" stroke="#302F31" stroke-miterlimit="10"/>
<path d="M31.0837 160.257C25.6525 154.711 20.2873 153.874 20.2873 153.874C20.2873 153.874 12.3637 151.777 9.26953 154.614" stroke="#302F31" stroke-miterlimit="10"/>
<path d="M32.1843 131.751L31.7031 129.6" stroke="#302F31" stroke-miterlimit="10"/>
<path d="M44.7163 245.515C44.7163 245.515 45.8701 201.199 44.7163 187.741C43.5625 174.283 38.1793 158.517 38.1793 158.517L32.6953 134.029" stroke="#302F31" stroke-miterlimit="10"/>
<path d="M67.5898 141.265L68.581 139.141" stroke="#302F31" stroke-miterlimit="10"/>
<path d="M47.4102 245.466C47.4102 245.466 47.7948 205.044 49.3332 193.508C50.871 181.973 57.0234 163.9 57.0234 163.9L66.465 143.675" stroke="#302F31" stroke-miterlimit="10"/>
<path d="M53.9442 196.2C53.9442 196.2 51.2526 219.375 49.7148 245.522" stroke="#302F31" stroke-miterlimit="10"/>
<path d="M40.8721 245.466C40.8721 245.466 41.6413 208.505 40.1029 203.506C38.5651 198.507 35.9851 200.708 35.9851 200.708C35.9851 200.708 28.8679 201.545 26.2891 205.671" stroke="#302F31" stroke-miterlimit="10"/>
<path d="M42.6367 198.23C44.6485 209.503 42.7927 245.504 42.7927 245.504" stroke="#302F31" stroke-miterlimit="10"/>
<path d="M61.5716 171.742C59.3444 173.267 57.2042 175.727 55.727 179.666C51.113 191.971 51.6392 245.522 51.6392 245.522" stroke="#302F31" stroke-miterlimit="10"/>
<path d="M32.4219 161.724C34.8255 164.546 37.1565 168.363 38.9481 173.513C45.1005 191.201 47.4075 237.006 46.2543 245.466" stroke="#302F31" stroke-miterlimit="10"/>
<path d="M48.0498 178.277C47.6754 200.601 47.4102 245.467 47.4102 245.467" stroke="#302F31" stroke-miterlimit="10"/>
<path d="M48.0977 175.5C48.3515 160.739 48.6503 146.292 48.9491 138.522C49.7183 118.527 50.9129 119.649 50.9129 119.649C50.9129 119.649 52.3367 115.16 60.3305 115.675" stroke="#302F31" stroke-miterlimit="10"/>
<path d="M38.2487 192.356C38.2487 192.356 31.8155 186.619 34.3889 183.798C36.9623 180.977 52.9169 178.907 57.5489 182.575C62.1809 186.243 51.8873 191.416 48.0275 192.544C44.1671 193.673 39.5351 193.297 38.2487 192.356Z" fill="#2DD4BF" stroke="#302F31" stroke-miterlimit="10" stroke-linecap="round" stroke-linejoin="round"/>
<path d="M44.1897 187.659C44.0997 188.24 44.0469 188.817 44.0469 189.372" stroke="#302F31" stroke-miterlimit="10"/>
<path d="M46.4012 180.962C46.4012 180.962 45.4442 182.877 44.75 185.223" stroke="#302F31" stroke-miterlimit="10"/>
<path d="M38.2487 229.867C38.2487 229.867 31.8155 224.13 34.3889 221.309C36.9623 218.487 52.9169 216.418 57.5489 220.086C62.1809 223.754 51.8873 228.926 48.0275 230.055C44.1671 231.183 39.5351 230.808 38.2487 229.867Z" fill="#2DD4BF" stroke="#302F31" stroke-miterlimit="10" stroke-linecap="round" stroke-linejoin="round"/>
<path d="M46.4019 218.472C46.4019 218.472 44.0469 223.182 44.0469 226.882" stroke="#302F31" stroke-miterlimit="10"/>
<path d="M43.0411 214.003C43.0411 214.003 38.6731 210.108 40.4203 208.192C42.1675 206.276 52.9999 204.871 56.1451 207.362C59.2903 209.853 52.3015 213.364 49.6807 214.131C47.0593 214.897 43.9147 214.641 43.0411 214.003Z" fill="#2DD4BF" stroke="#302F31" stroke-miterlimit="10" stroke-linecap="round" stroke-linejoin="round"/>
<path d="M48.5756 206.267C48.5756 206.267 46.9766 209.465 46.9766 211.977" stroke="#302F31" stroke-miterlimit="10"/>
<path d="M54.4111 239.086H36.9961V277.701H54.4111V239.086Z" fill="white" stroke="#302F31" stroke-miterlimit="10" stroke-linecap="round" stroke-linejoin="round"/>
<path d="M219.387 221.134H164.74C163.292 221.134 162.117 219.96 162.117 218.511V171.104C162.117 169.656 163.291 168.481 164.74 168.481H219.387C220.835 168.481 222.01 169.656 222.01 171.104V218.511C222.009 219.96 220.835 221.134 219.387 221.134Z" fill="#302F31" stroke="#302F31" stroke-miterlimit="10" stroke-linecap="round" stroke-linejoin="round"/>
<path d="M217.488 218.284H162.841C161.393 218.284 160.219 217.11 160.219 215.661V168.254C160.219 166.806 161.393 165.631 162.841 165.631H217.488C218.936 165.631 220.111 166.805 220.111 168.254V215.661C220.11 217.109 218.936 218.284 217.488 218.284Z" fill="white" stroke="#302F31" stroke-miterlimit="10" stroke-linecap="round" stroke-linejoin="round"/>
<path d="M220.111 172.288V168.254C220.111 166.806 218.937 165.631 217.488 165.631H162.841C161.393 165.631 160.219 166.805 160.219 168.254V172.288H220.111Z" fill="#A3E635" stroke="#302F31" stroke-miterlimit="10" stroke-linecap="round" stroke-linejoin="round"/>
<path d="M204.311 170.735C205.197 170.735 205.915 170.017 205.915 169.131C205.915 168.245 205.197 167.527 204.311 167.527C203.425 167.527 202.707 168.245 202.707 169.131C202.707 170.017 203.425 170.735 204.311 170.735Z" fill="white" stroke="#302F31" stroke-miterlimit="10" stroke-linecap="round" stroke-linejoin="round"/>
<path d="M210.993 169.131C210.993 168.246 210.275 167.527 209.389 167.527C208.503 167.527 207.785 168.246 207.785 169.131C207.785 170.017 208.503 170.735 209.389 170.735C210.275 170.735 210.993 170.017 210.993 169.131Z" fill="white" stroke="#302F31" stroke-miterlimit="10" stroke-linecap="round" stroke-linejoin="round"/>
<path d="M214.467 170.735C215.353 170.735 216.071 170.017 216.071 169.131C216.071 168.245 215.353 167.527 214.467 167.527C213.581 167.527 212.863 168.245 212.863 169.131C212.863 170.017 213.581 170.735 214.467 170.735Z" fill="white" stroke="#302F31" stroke-miterlimit="10" stroke-linecap="round" stroke-linejoin="round"/>
<path d="M212.691 175.899H168.358C167.599 175.899 166.984 176.514 166.984 177.273V189.089V194.097L170.184 189.089H212.691C213.449 189.089 214.064 188.474 214.064 187.715V177.273C214.064 176.514 213.45 175.899 212.691 175.899Z" stroke="#302F31" stroke-miterlimit="10"/>
<path d="M168.358 196.936H212.691C213.449 196.936 214.064 197.551 214.064 198.309V210.125V215.134L210.864 210.125H168.358C167.599 210.125 166.984 209.51 166.984 208.751V198.309C166.984 197.551 167.599 196.936 168.358 196.936Z" stroke="#302F31" stroke-miterlimit="10"/>
<path d="M175.081 186.417C177.294 186.417 179.088 184.623 179.088 182.41C179.088 180.197 177.294 178.403 175.081 178.403C172.868 178.403 171.074 180.197 171.074 182.41C171.074 184.623 172.868 186.417 175.081 186.417Z" fill="#A3E635" stroke="#302F31" stroke-miterlimit="10" stroke-linecap="round" stroke-linejoin="round"/>
<path d="M175.08 182.912C176.002 182.912 176.75 182.164 176.75 181.242C176.75 180.32 176.002 179.572 175.08 179.572C174.158 179.572 173.41 180.32 173.41 181.242C173.41 182.164 174.158 182.912 175.08 182.912Z" fill="white" stroke="#302F31" stroke-miterlimit="10" stroke-linecap="round" stroke-linejoin="round"/>
<path d="M175.079 186.417C175.954 186.417 176.761 186.133 177.421 185.657C177.405 184.376 176.365 183.342 175.079 183.342C173.795 183.342 172.754 184.376 172.738 185.657C173.398 186.133 174.205 186.417 175.079 186.417Z" fill="white" stroke="#302F31" stroke-miterlimit="10" stroke-linecap="round" stroke-linejoin="round"/>
<path d="M181.93 179.074H195.546" stroke="#302F31" stroke-miterlimit="10"/>
<path d="M182.211 182.951H210.296" stroke="#302F31" stroke-miterlimit="10"/>
<path d="M182.211 185.409H210.296" stroke="#302F31" stroke-miterlimit="10"/>
<path d="M175.081 207.883C177.294 207.883 179.088 206.089 179.088 203.876C179.088 201.663 177.294 199.869 175.081 199.869C172.868 199.869 171.074 201.663 171.074 203.876C171.074 206.089 172.868 207.883 175.081 207.883Z" fill="#302F31" stroke="#302F31" stroke-miterlimit="10" stroke-linecap="round" stroke-linejoin="round"/>
<path d="M175.08 204.377C176.002 204.377 176.75 203.629 176.75 202.707C176.75 201.785 176.002 201.037 175.08 201.037C174.158 201.037 173.41 201.785 173.41 202.707C173.41 203.629 174.158 204.377 175.08 204.377Z" fill="white" stroke="#302F31" stroke-miterlimit="10" stroke-linecap="round" stroke-linejoin="round"/>
<path d="M175.079 207.883C175.954 207.883 176.761 207.599 177.421 207.123C177.405 205.842 176.365 204.808 175.079 204.808C173.795 204.808 172.754 205.842 172.738 207.123C173.398 207.599 174.205 207.883 175.079 207.883Z" fill="white" stroke="#302F31" stroke-miterlimit="10" stroke-linecap="round" stroke-linejoin="round"/>
<path d="M181.93 200.539H195.546" stroke="#302F31" stroke-miterlimit="10"/>
<path d="M182.211 204.416H210.296" stroke="#302F31" stroke-miterlimit="10"/>
<path d="M182.211 206.874H210.296" stroke="#302F31" stroke-miterlimit="10"/>
<path d="M149.913 182.326H75.2163C74.0721 182.326 73.1445 181.398 73.1445 180.254V139.161C73.1445 138.479 73.6977 137.926 74.3799 137.926H150.75C151.432 137.926 151.985 138.479 151.985 139.161V180.254C151.985 181.398 151.058 182.326 149.913 182.326Z" fill="#302F31" stroke="#302F31" stroke-miterlimit="10" stroke-linecap="round" stroke-linejoin="round"/>
<path d="M151.985 145.168H73.1445V139.161C73.1445 138.479 73.6977 137.926 74.3799 137.926H150.75C151.432 137.926 151.985 138.479 151.985 139.161V145.168H151.985Z" fill="#302F31" stroke="#302F31" stroke-miterlimit="10" stroke-linecap="round" stroke-linejoin="round"/>
<path d="M135.842 143.258C136.728 143.258 137.446 142.54 137.446 141.655C137.446 140.769 136.728 140.051 135.842 140.051C134.956 140.051 134.238 140.769 134.238 141.655C134.238 142.54 134.956 143.258 135.842 143.258Z" fill="#302F31" stroke="#302F31" stroke-miterlimit="10" stroke-linecap="round" stroke-linejoin="round"/>
<path d="M140.924 143.258C141.81 143.258 142.528 142.54 142.528 141.655C142.528 140.769 141.81 140.051 140.924 140.051C140.038 140.051 139.32 140.769 139.32 141.655C139.32 142.54 140.038 143.258 140.924 143.258Z" fill="#302F31" stroke="#302F31" stroke-miterlimit="10" stroke-linecap="round" stroke-linejoin="round"/>
<path d="M146.002 143.258C146.888 143.258 147.606 142.54 147.606 141.655C147.606 140.769 146.888 140.051 146.002 140.051C145.116 140.051 144.398 140.769 144.398 141.655C144.398 142.54 145.116 143.258 146.002 143.258Z" fill="#302F31" stroke="#302F31" stroke-miterlimit="10" stroke-linecap="round" stroke-linejoin="round"/>
<path d="M97.7914 152.089H81.6016V167.559H97.7914V152.089Z" fill="#302F31" stroke="#302F31" stroke-miterlimit="10"/>
<path d="M103.188 153.888H145.641" stroke="#302F31" stroke-miterlimit="10"/>
<path d="M103.188 158.924H145.641" stroke="#302F31" stroke-miterlimit="10"/>
<path d="M103.188 163.961H145.641" stroke="#302F31" stroke-miterlimit="10"/>
<path d="M103.188 168.998H145.641" stroke="#302F31" stroke-miterlimit="10"/>
<path d="M148.014 179.475H73.3179C72.1737 179.475 71.2461 178.548 71.2461 177.403V136.311C71.2461 135.628 71.7993 135.075 72.4815 135.075H148.851C149.533 135.075 150.087 135.628 150.087 136.311V177.403C150.087 178.548 149.158 179.475 148.014 179.475Z" fill="white" stroke="#302F31" stroke-miterlimit="10" stroke-linecap="round" stroke-linejoin="round"/>
<path d="M150.086 142.317H71.2461V136.311C71.2461 135.628 71.7993 135.075 72.4815 135.075H148.851C149.533 135.075 150.087 135.628 150.087 136.311V142.317H150.086Z" fill="#A3E635" stroke="#302F31" stroke-miterlimit="10" stroke-linecap="round" stroke-linejoin="round"/>
<path d="M133.944 140.409C134.829 140.409 135.547 139.691 135.547 138.805C135.547 137.919 134.829 137.201 133.944 137.201C133.058 137.201 132.34 137.919 132.34 138.805C132.34 139.691 133.058 140.409 133.944 140.409Z" fill="white" stroke="#302F31" stroke-miterlimit="10" stroke-linecap="round" stroke-linejoin="round"/>
<path d="M139.026 140.409C139.911 140.409 140.629 139.691 140.629 138.805C140.629 137.919 139.911 137.201 139.026 137.201C138.14 137.201 137.422 137.919 137.422 138.805C137.422 139.691 138.14 140.409 139.026 140.409Z" fill="white" stroke="#302F31" stroke-miterlimit="10" stroke-linecap="round" stroke-linejoin="round"/>
<path d="M144.104 140.409C144.99 140.409 145.708 139.691 145.708 138.805C145.708 137.919 144.99 137.201 144.104 137.201C143.218 137.201 142.5 137.919 142.5 138.805C142.5 139.691 143.218 140.409 144.104 140.409Z" fill="white" stroke="#302F31" stroke-miterlimit="10" stroke-linecap="round" stroke-linejoin="round"/>
<path d="M95.8929 149.238H79.7031V164.709H95.8929V149.238Z" stroke="#302F31" stroke-miterlimit="10"/>
<path d="M101.289 151.037H143.743" stroke="#302F31" stroke-miterlimit="10"/>
<path d="M101.289 156.074H143.743" stroke="#302F31" stroke-miterlimit="10"/>
<path d="M101.289 161.11H143.743" stroke="#302F31" stroke-miterlimit="10"/>
<path d="M101.289 166.147H143.743" stroke="#302F31" stroke-miterlimit="10"/>
<path d="M219.39 157.988H164.744C163.296 157.988 162.121 156.814 162.121 155.365V107.959C162.121 106.51 163.295 105.336 164.744 105.336H219.39C220.839 105.336 222.014 106.51 222.014 107.959V155.365C222.013 156.814 220.839 157.988 219.39 157.988Z" fill="#302F31" stroke="#302F31" stroke-miterlimit="10" stroke-linecap="round" stroke-linejoin="round"/>
<path d="M217.491 155.137H162.845C161.397 155.137 160.223 153.963 160.223 152.514V105.108C160.223 103.659 161.397 102.484 162.845 102.484H217.491C218.94 102.484 220.115 103.659 220.115 105.108V152.514C220.114 153.963 218.94 155.137 217.491 155.137Z" fill="white" stroke="#302F31" stroke-miterlimit="10" stroke-linecap="round" stroke-linejoin="round"/>
<path d="M173.367 123.566H167.844V149.111H173.367V123.566Z" fill="#302F31" stroke="#302F31" stroke-miterlimit="10" stroke-linecap="round" stroke-linejoin="round"/>
<path d="M181.191 127.709H175.668V149.111H181.191V127.709Z" fill="#A3E635" stroke="#302F31" stroke-miterlimit="10" stroke-linecap="round" stroke-linejoin="round"/>
<path d="M189.015 131.161H183.492V149.111H189.015V131.161Z" fill="white" stroke="#302F31" stroke-miterlimit="10" stroke-linecap="round" stroke-linejoin="round"/>
<path d="M196.839 120.575H191.316V149.111H196.839V120.575Z" fill="#302F31" stroke="#302F31" stroke-miterlimit="10" stroke-linecap="round" stroke-linejoin="round"/>
<path d="M204.664 124.027H199.141V149.112H204.664V124.027Z" fill="#A3E635" stroke="#302F31" stroke-miterlimit="10" stroke-linecap="round" stroke-linejoin="round"/>
<path d="M212.488 112.061H206.965V149.111H212.488V112.061Z" fill="white" stroke="#302F31" stroke-miterlimit="10" stroke-linecap="round" stroke-linejoin="round"/>
<path d="M168.219 109.397H173.742" stroke="#302F31" stroke-miterlimit="10"/>
<path d="M168.219 111.699H173.742" stroke="#302F31" stroke-miterlimit="10"/>
<path d="M168.219 114.001H173.742" stroke="#302F31" stroke-miterlimit="10"/>
<path d="M175.582 109.397H197.904" stroke="#302F31" stroke-miterlimit="10"/>
<path d="M175.582 111.699H197.904" stroke="#302F31" stroke-miterlimit="10"/>
<path d="M175.582 114.001H197.904" stroke="#302F31" stroke-miterlimit="10"/>
<path d="M219.39 95.6055H164.744C163.296 95.6055 162.121 94.4313 162.121 92.9823V45.5757C162.121 44.1273 163.295 42.9531 164.744 42.9531H219.39C220.839 42.9531 222.014 44.1273 222.014 45.5757V92.9823C222.013 94.4313 220.839 95.6055 219.39 95.6055Z" fill="#302F31" stroke="#302F31" stroke-miterlimit="10" stroke-linecap="round" stroke-linejoin="round"/>
<path d="M217.491 92.7555H162.845C161.397 92.7555 160.223 91.5813 160.223 90.1323V42.7257C160.223 41.2773 161.397 40.1025 162.845 40.1025H217.491C218.94 40.1025 220.115 41.2767 220.115 42.7257V90.1323C220.114 91.5807 218.94 92.7555 217.491 92.7555Z" fill="white" stroke="#302F31" stroke-miterlimit="10" stroke-linecap="round" stroke-linejoin="round"/>
<path d="M188.702 82.1427C197.98 82.1427 205.501 74.6214 205.501 65.3433C205.501 56.0653 197.98 48.5439 188.702 48.5439C179.424 48.5439 171.902 56.0653 171.902 65.3433C171.902 74.6214 179.424 82.1427 188.702 82.1427Z" fill="white" stroke="#302F31" stroke-miterlimit="10" stroke-linecap="round" stroke-linejoin="round"/>
<path d="M205.009 61.2942C204.299 58.425 202.825 55.7064 200.582 53.4642C194.022 46.9038 183.385 46.9038 176.824 53.4642L188.703 65.343L205.009 61.2942Z" fill="#302F31" stroke="#302F31" stroke-miterlimit="10" stroke-linecap="round" stroke-linejoin="round"/>
<path d="M205.008 61.2949L188.703 65.3437L183.852 81.4291C189.583 83.1523 196.053 81.7507 200.582 77.2225C204.9 72.9043 206.375 66.8203 205.008 61.2949Z" fill="#A3E635" stroke="#302F31" stroke-miterlimit="10" stroke-linecap="round" stroke-linejoin="round"/>
<path d="M195.375 54.758L200.898 47.624H204.35" stroke="#302F31" stroke-miterlimit="10"/>
<path d="M207.574 47.8545H213.097" stroke="#302F31" stroke-miterlimit="10"/>
<path d="M207.574 50.1553H213.097" stroke="#302F31" stroke-miterlimit="10"/>
<path d="M207.574 52.4561H213.097" stroke="#302F31" stroke-miterlimit="10"/>
<path d="M207.574 77.7715H213.097" stroke="#302F31" stroke-miterlimit="10"/>
<path d="M207.574 80.0723H213.097" stroke="#302F31" stroke-miterlimit="10"/>
<path d="M207.574 82.374H213.097" stroke="#302F31" stroke-miterlimit="10"/>
<path d="M164.77 77.3105H170.293" stroke="#302F31" stroke-miterlimit="10"/>
<path d="M164.77 79.6113H170.293" stroke="#302F31" stroke-miterlimit="10"/>
<path d="M164.77 81.9131H170.293" stroke="#302F31" stroke-miterlimit="10"/>
<path d="M179.266 76.6201L177.195 81.9133H171.672" stroke="#302F31" stroke-miterlimit="10"/>
<path d="M201.59 70.1768H210.795V73.1684" stroke="#302F31" stroke-miterlimit="10"/>
<path d="M147.535 95.8024H92.8888C91.4404 95.8024 90.2656 94.6282 90.2656 93.1792V45.7726C90.2656 44.3242 91.4398 43.1494 92.8888 43.1494H147.535C148.983 43.1494 150.158 44.3236 150.158 45.7726V93.1792C150.158 94.6282 148.983 95.8024 147.535 95.8024Z" fill="#302F31" stroke="#302F31" stroke-miterlimit="10" stroke-linecap="round" stroke-linejoin="round"/>
<path d="M144.996 92.7565H90.3498C88.9014 92.7565 87.7266 91.5823 87.7266 90.1333V42.7267C87.7266 41.2783 88.9008 40.1035 90.3498 40.1035H144.996C146.444 40.1035 147.619 41.2777 147.619 42.7267V90.1333C147.619 91.5817 146.445 92.7565 144.996 92.7565Z" fill="white" stroke="#302F31" stroke-miterlimit="10" stroke-linecap="round" stroke-linejoin="round"/>
<path d="M93.9414 82.7881V84.8209" stroke="#302F31" stroke-miterlimit="10"/>
<path d="M98.8203 82.7881V84.8209" stroke="#302F31" stroke-miterlimit="10"/>
<path d="M103.699 82.7881V84.8209" stroke="#302F31" stroke-miterlimit="10"/>
<path d="M108.574 82.7881V84.8209" stroke="#302F31" stroke-miterlimit="10"/>
<path d="M113.453 82.7881V84.8209" stroke="#302F31" stroke-miterlimit="10"/>
<path d="M118.332 82.7881V84.8209" stroke="#302F31" stroke-miterlimit="10"/>
<path d="M123.207 82.7881V84.8209" stroke="#302F31" stroke-miterlimit="10"/>
<path d="M128.086 82.7881V84.8209" stroke="#302F31" stroke-miterlimit="10"/>
<path d="M132.965 82.7881V84.8209" stroke="#302F31" stroke-miterlimit="10"/>
<path d="M137.844 82.7881V84.8209" stroke="#302F31" stroke-miterlimit="10"/>
<path d="M142.719 82.7881V84.8209" stroke="#302F31" stroke-miterlimit="10"/>
<path d="M140.686 54.3335L135.402 57.1793L131.134 48.6431L125.646 55.7561L120.769 51.4883L116.094 46.2041L111.216 51.8945L106.339 65.7149L101.054 60.6341L95.7695 64.4957V77.2997H140.686V54.3335Z" fill="#A3E635" stroke="#302F31" stroke-miterlimit="10" stroke-linecap="round" stroke-linejoin="round"/>
<path d="M95.8945 46.0898H101.418" stroke="#302F31" stroke-miterlimit="10"/>
<path d="M95.8945 48.3916H101.418" stroke="#302F31" stroke-miterlimit="10"/>
<path d="M95.8945 50.6924H101.418" stroke="#302F31" stroke-miterlimit="10"/>
<path d="M140.686 65.587L135.402 67.5442L131.134 58.0498L125.646 64.699L120.769 63.073L116.094 73.2352L111.216 59.6176L106.339 73.2352L101.054 68.1538L95.7695 74.8612V79.7386H140.686V65.587Z" fill="#302F31" stroke="#302F31" stroke-miterlimit="10" stroke-linecap="round" stroke-linejoin="round"/>
<path d="M248.299 69.2242C248.299 69.2242 246.306 63.958 240.614 64.5274C234.921 65.0968 232.359 69.6508 233.355 72.64C234.351 75.6286 234.92 76.6252 234.92 76.6252C234.92 76.6252 233.07 75.7714 233.639 78.76C234.209 81.7486 238.478 81.1798 239.19 80.8948C239.902 80.6104 243.033 72.64 248.299 69.2242Z" fill="#302F31" stroke="#302F31" stroke-miterlimit="10" stroke-linecap="round" stroke-linejoin="round"/>
<path d="M212.049 120.298L201.945 125.35C201.14 125.753 201.112 126.892 201.897 127.333L228.855 142.496C229.322 142.759 229.908 142.655 230.257 142.25L236.587 134.884C237.051 134.345 236.902 133.516 236.28 133.171L213.096 120.32C212.771 120.141 212.379 120.133 212.049 120.298Z" fill="#302F31" stroke="#302F31" stroke-miterlimit="10" stroke-linecap="round" stroke-linejoin="round"/>
<path d="M236.686 129.401L232.434 126.644C232.434 126.644 229.251 123.076 228.053 122.47C226.855 121.864 218.84 123.308 218.84 123.308L236.468 133.28L236.686 129.401Z" fill="white" stroke="#302F31" stroke-miterlimit="10" stroke-linecap="round" stroke-linejoin="round"/>
<path d="M228.001 125.047C228.001 125.047 224.87 125.189 222.937 124.364C221.004 123.54 219.897 123.926 220.902 125.55C221.907 127.173 225.038 127.031 225.038 127.031C225.038 127.031 227.77 130.356 231.081 129.054" fill="white"/>
<path d="M228.001 125.047C228.001 125.047 224.87 125.189 222.937 124.364C221.004 123.54 219.897 123.926 220.902 125.55C221.907 127.173 225.038 127.031 225.038 127.031C225.038 127.031 227.77 130.356 231.081 129.054" stroke="#302F31" stroke-miterlimit="10" stroke-linecap="round" stroke-linejoin="round"/>
<path d="M271.101 268.357C271.101 268.357 272.887 275.202 272.738 276.393C272.589 277.583 268.869 278.625 266.785 278.625C264.702 278.625 260.535 279.369 260.535 279.369L260.684 268.356L271.101 268.357Z" fill="white" stroke="#302F31" stroke-miterlimit="10" stroke-linecap="round" stroke-linejoin="round"/>
<path d="M272.738 276.392C272.776 276.092 272.69 275.433 272.541 274.615C271.312 275.269 269.626 276.07 267.976 276.541C265.445 277.264 261.843 277.304 260.563 277.293L260.535 279.368C260.535 279.368 264.702 278.624 266.785 278.624C268.869 278.624 272.589 277.583 272.738 276.392Z" fill="white" stroke="#302F31" stroke-miterlimit="10" stroke-linecap="round" stroke-linejoin="round"/>
<path d="M258.45 202.582C258.45 202.582 260.385 218.802 261.129 221.928C261.873 225.053 265.593 230.41 267.081 238.743C268.569 247.077 271.397 266.423 271.397 266.869C271.397 267.315 271.695 268.655 271.843 269.547C271.843 269.547 268.57 270.887 266.188 270.589C263.808 270.291 261.724 269.696 261.724 269.696C261.724 269.696 262.765 263.297 260.533 251.839C258.301 240.381 256.069 228.476 254.73 220.142C253.39 211.809 258.45 202.582 258.45 202.582Z" fill="#A1A1AA" stroke="#302F31" stroke-miterlimit="10" stroke-linecap="round" stroke-linejoin="round"/>
<path d="M250.86 266.571C250.86 266.571 249.967 268.059 247.437 270.292C244.908 272.524 240.145 274.905 238.806 275.5C237.467 276.096 236.425 276.096 236.723 277.435C237.021 278.774 239.253 279.816 245.949 279.816C252.646 279.816 259.789 279.518 260.533 279.369C261.277 279.22 263.509 279.22 263.509 277.584C263.509 275.947 262.765 269.399 262.765 269.399L250.86 266.571Z" fill="white" stroke="#302F31" stroke-miterlimit="10" stroke-linecap="round" stroke-linejoin="round"/>
<path d="M260.533 279.37C261.277 279.221 263.509 279.221 263.509 277.584C263.509 277.344 263.492 276.995 263.465 276.579C260.918 276.912 255.143 277.627 248.627 278.18C242.892 278.666 238.82 277.693 236.678 276.959C236.671 277.098 236.681 277.252 236.722 277.436C237.02 278.775 239.252 279.817 245.948 279.817C252.646 279.816 259.789 279.518 260.533 279.37Z" fill="white" stroke="#302F31" stroke-miterlimit="10" stroke-linecap="round" stroke-linejoin="round"/>
<path d="M235.086 168.355C235.086 168.355 234.937 180.112 236.574 193.355C238.21 206.6 242.973 222.671 242.973 222.671C242.973 222.671 245.353 235.618 246.097 240.082C246.841 244.547 250.711 262.106 250.711 262.106L249.074 264.338L249.372 268.207C249.372 268.207 250.711 268.505 255.324 269.546C259.938 270.588 262.765 270.439 262.765 270.439C262.765 270.439 263.062 262.701 262.914 261.659C262.765 260.618 261.872 255.707 261.723 254.07C261.574 252.433 262.021 234.278 260.979 230.111C259.938 225.944 258.152 219.844 258.152 214.486C258.152 209.129 262.17 182.938 262.17 182.938C262.17 182.938 266.486 176.837 266.486 173.266C266.486 169.694 266.04 167.908 266.04 167.908L235.086 168.355Z" fill="#A1A1AA" stroke="#302F31" stroke-miterlimit="10" stroke-linecap="round" stroke-linejoin="round"/>
<path d="M256.185 257.065C256.517 260.353 256.663 262.542 256.663 262.542C256.663 262.542 255.706 263.02 256.185 264.694C256.663 266.368 256.902 267.564 256.902 267.564" stroke="#302F31" stroke-width="0.75" stroke-miterlimit="10" stroke-linecap="round" stroke-linejoin="round"/>
<path d="M246.571 185.284C246.202 191.221 246.127 199.318 247.336 207.781C249.728 224.52 253.793 239.585 254.988 247.477C255.348 249.853 255.644 252.164 255.88 254.234" stroke="#302F31" stroke-width="0.75" stroke-miterlimit="10" stroke-linecap="round" stroke-linejoin="round"/>
<path d="M247.577 175.737C247.577 175.737 247.124 178.369 246.766 182.644" stroke="#302F31" stroke-width="0.75" stroke-miterlimit="10" stroke-linecap="round" stroke-linejoin="round"/>
<path d="M263.816 74.063C263.816 74.063 265.667 66.662 276.768 67.5158C287.869 68.3696 287.727 78.4748 287.727 78.4748L285.307 77.336C285.307 77.336 287.3 83.1716 285.023 87.4412C282.746 91.7108 276.91 94.1306 273.067 93.419C269.224 92.7074 265.097 89.1494 264.527 87.1568C263.959 85.1648 266.093 78.1904 263.816 74.063Z" fill="#302F31" stroke="#302F31" stroke-miterlimit="10" stroke-linecap="round" stroke-linejoin="round"/>
<path d="M241.755 73.2094C241.755 73.2094 240.901 74.6326 239.193 77.6218C237.486 80.6104 238.197 83.3146 237.058 84.7378C235.92 86.161 232.789 86.0188 233.215 87.442C233.643 88.8652 235.492 89.8618 235.492 89.8618C235.492 89.8618 235.492 97.8322 236.346 98.8282C237.2 99.8242 243.747 98.1166 243.747 98.1166C243.747 98.1166 245.028 100.109 244.174 104.521C243.321 108.933 235.635 121.173 234.639 127.293C233.643 133.413 237.058 148.641 237.058 148.641L233.784 170.844C233.784 170.844 242.039 173.975 251.859 173.121C261.679 172.267 267.657 170.274 267.657 170.274L261.11 144.513C261.11 144.513 261.679 126.296 260.398 116.191C259.117 106.086 255.844 103.667 255.844 99.9658C255.844 96.2656 260.541 94.273 263.529 90.7144C264.89 89.0944 268.51 82.8862 264.952 75.2008C262.62 70.1638 255.132 68.227 250.008 68.0848C244.886 67.9432 241.755 73.2094 241.755 73.2094Z" fill="white" stroke="#302F31" stroke-miterlimit="10" stroke-linecap="round" stroke-linejoin="round"/>
<path d="M243.746 98.1156L246.867 97.416L244.922 101.306C244.922 101.306 244.516 99.3018 243.746 98.1156Z" fill="#302F31" stroke="#302F31" stroke-miterlimit="10" stroke-linecap="round" stroke-linejoin="round"/>
<path d="M267.659 170.275L261.112 144.514C261.112 144.514 261.681 126.296 260.4 116.192C260.059 113.504 259.577 111.364 259.054 109.595C256.96 107.964 253.729 105.913 250.437 105.659C246.616 105.365 242.796 109.792 240.785 112.58C238.282 117.668 235.241 123.596 234.639 127.293C233.643 133.413 237.059 148.642 237.059 148.642L233.785 170.844C233.785 170.844 242.04 173.975 251.86 173.121C261.681 172.268 267.659 170.275 267.659 170.275Z" fill="#2DD4BF" stroke="#302F31" stroke-miterlimit="10" stroke-linecap="round" stroke-linejoin="round"/>
<path d="M250.01 68.0858C244.887 67.9436 241.756 73.2092 241.756 73.2092C241.756 73.2092 241.309 73.9532 240.422 75.4862C241.31 74.4314 244.539 70.967 245.883 74.6324C246.667 76.7702 244.744 79.7564 245.741 80.7524C246.737 81.7484 248.729 84.026 248.445 84.4526C248.161 84.8798 248.018 85.8758 248.018 85.8758C248.018 85.8758 250.58 82.1756 252.572 84.4526C254.565 86.7296 251.861 90.9998 251.861 90.9998L250.153 91.5692C250.153 91.5692 255.704 97.8314 256.7 97.8314C256.974 97.8314 257.694 95.6936 258.977 95.2694C260.451 93.8726 261.689 92.9084 263.531 90.7148C264.892 89.0948 268.513 82.8872 264.955 75.2012C262.622 70.1648 255.134 68.228 250.01 68.0858Z" fill="#302F31" stroke="#302F31" stroke-miterlimit="10" stroke-linecap="round" stroke-linejoin="round"/>
<path d="M240.318 84.3588C240.162 85.089 239.786 85.6278 239.479 85.5618C239.171 85.4958 239.048 84.8508 239.204 84.1206C239.36 83.3904 239.737 82.8516 240.044 82.9176C240.351 82.9836 240.474 83.6286 240.318 84.3588Z" fill="#302F31"/>
<path d="M239.191 80.8946C239.191 80.8946 240.757 79.187 241.753 81.3218" stroke="#302F31" stroke-miterlimit="10" stroke-linecap="round" stroke-linejoin="round"/>
<path d="M236.633 91.5693C236.633 91.5693 236.917 92.1387 238.483 91.5693" stroke="#302F31" stroke-miterlimit="10" stroke-linecap="round" stroke-linejoin="round"/>
<path d="M246.025 113.346C246.025 113.346 243.891 116.334 243.037 121.885C242.183 127.436 242.895 145.511 242.895 145.511C242.895 145.511 230.797 142.095 226.812 140.102C222.826 138.11 221.545 137.256 221.545 137.256C221.545 137.256 220.264 134.267 219.268 133.128C218.272 131.99 215.568 131.705 214.572 130.994C213.576 130.282 212.864 128.005 211.583 128.859C210.302 129.713 210.871 130.851 211.441 131.279C212.01 131.706 214.145 133.84 214.145 133.84L208.737 131.421C208.737 131.421 208.309 133.556 209.021 134.267C209.733 134.979 211.156 136.26 211.156 136.26C211.156 136.26 213.291 139.248 214.572 139.96C215.853 140.672 218.13 141.241 218.557 141.383C219.833 141.809 221.115 142.896 222.254 143.588C224.673 145.058 227.088 146.534 229.511 147.998C233.179 150.215 237.256 152.136 241.375 153.584C243.966 154.494 250.309 157.278 252.559 154.487C253.53 153.279 253.233 149.705 253.486 148.189C255.076 138.644 257.127 129.039 257.127 119.322" fill="#2DD4BF"/>
<path d="M246.025 113.346C246.025 113.346 243.891 116.334 243.037 121.885C242.183 127.436 242.895 145.511 242.895 145.511C242.895 145.511 230.797 142.095 226.812 140.102C222.826 138.11 221.545 137.256 221.545 137.256C221.545 137.256 220.264 134.267 219.268 133.128C218.272 131.99 215.568 131.705 214.572 130.994C213.576 130.282 212.864 128.005 211.583 128.859C210.302 129.713 210.871 130.851 211.441 131.279C212.01 131.706 214.145 133.84 214.145 133.84L208.737 131.421C208.737 131.421 208.309 133.556 209.021 134.267C209.733 134.979 211.156 136.26 211.156 136.26C211.156 136.26 213.291 139.248 214.572 139.96C215.853 140.672 218.13 141.241 218.557 141.383C219.833 141.809 221.115 142.896 222.254 143.588C224.673 145.058 227.088 146.534 229.511 147.998C233.179 150.215 237.256 152.136 241.375 153.584C243.966 154.494 250.309 157.278 252.559 154.487C253.53 153.279 253.233 149.705 253.486 148.189C255.076 138.644 257.127 129.039 257.127 119.322" stroke="#302F31" stroke-miterlimit="10" stroke-linecap="round" stroke-linejoin="round"/>
<path d="M238.581 144.242C234.699 143.066 229.245 141.32 226.812 140.103C222.826 138.111 221.545 137.257 221.545 137.257C221.545 137.257 220.264 134.268 219.268 133.129C218.272 131.991 215.568 131.706 214.572 130.995C213.576 130.283 212.864 128.006 211.583 128.86C210.302 129.714 210.871 130.852 211.441 131.28C212.01 131.707 214.145 133.842 214.145 133.842L208.737 131.422C208.737 131.422 208.309 133.557 209.021 134.268C209.733 134.98 211.156 136.261 211.156 136.261C211.156 136.261 213.291 139.249 214.572 139.961C215.853 140.673 218.13 141.242 218.557 141.384C219.833 141.81 221.115 142.897 222.254 143.589C224.673 145.059 227.088 146.535 229.511 147.999C231.799 149.382 234.246 150.649 236.762 151.759L238.581 144.242Z" fill="white" stroke="#302F31" stroke-miterlimit="10" stroke-linecap="round" stroke-linejoin="round"/>
<path d="M247.021 149.639L242.895 145.511L244.033 149.354" stroke="#302F31" stroke-miterlimit="10" stroke-linecap="round" stroke-linejoin="round"/>
<path d="M65.3541 207.5C65.3541 207.5 62.7825 222.932 59.4189 237.176C56.0559 251.42 57.0447 271.203 57.0447 271.203C57.0447 271.203 55.2645 274.962 56.8467 276.743C58.4295 278.523 61.0011 277.93 61.5945 277.93C62.1879 277.93 66.3423 277.732 66.3423 277.732C66.3423 277.732 69.5079 258.938 70.6947 241.923C71.8815 224.909 70.8927 198.993 69.7053 199.982C68.5185 200.971 65.9463 206.115 65.9463 206.115L65.3541 207.5Z" fill="#302F31" stroke="#302F31" stroke-miterlimit="10" stroke-linecap="round" stroke-linejoin="round"/>
<path d="M57.2432 157.447C57.2432 157.447 54.869 171.296 55.4624 175.253C56.0558 179.21 57.6386 184.156 57.6386 184.156C57.6386 184.156 62.9804 207.896 63.5738 209.677C64.1672 211.457 63.5738 232.626 62.387 241.924C61.2002 251.222 63.1784 257.356 63.5738 260.323C63.9698 263.291 63.7718 272.985 63.7718 272.985L63.3764 278.524C63.3764 278.524 66.146 279.514 71.0918 279.514C76.0376 279.514 86.5232 280.107 86.5232 280.107C86.5232 280.107 92.8538 279.909 92.2604 277.139C91.667 274.37 84.545 272.985 82.5662 271.204C80.588 269.424 79.2032 267.841 79.2032 267.841C79.2032 267.841 79.4012 265.863 79.0052 264.874C78.6092 263.884 77.027 263.884 77.2244 262.499C77.4224 261.115 80.7854 229.658 83.3576 221.547C85.9292 213.436 87.908 180.199 87.71 174.461C87.512 168.724 86.3252 160.019 86.3252 160.019L57.2432 157.447Z" fill="#302F31" stroke="#302F31" stroke-miterlimit="10" stroke-linecap="round" stroke-linejoin="round"/>
<path d="M59.3011 103.445C59.3011 103.445 53.4607 115.857 52.6087 124.375C51.7567 132.892 56.3809 154.065 56.3809 154.065C56.3809 154.065 54.5557 159.419 55.8943 160.271C57.2329 161.123 87.0445 162.704 87.0445 162.704C87.0445 162.704 88.8697 162.461 88.8697 160.879C88.8697 159.298 88.3831 158.202 88.1395 156.864C87.8959 155.525 88.5043 128.147 85.8277 122.063C83.1505 115.979 77.6749 108.557 77.6749 108.557L59.3011 103.445Z" fill="#A1A1AA" stroke="#302F31" stroke-miterlimit="10" stroke-linecap="round" stroke-linejoin="round"/>
<path d="M64.5664 153.729C67.8754 149.37 72.8446 142.671 76.3702 137.236" stroke="#302F31" stroke-miterlimit="10" stroke-linecap="round" stroke-linejoin="round"/>
<path d="M61.0664 158.28C61.0664 158.28 61.7246 157.441 62.7986 156.044" stroke="#302F31" stroke-miterlimit="10" stroke-linecap="round" stroke-linejoin="round"/>
<path d="M75.8937 134.606C75.8937 134.606 64.4151 142.498 62.9805 142.976" stroke="#302F31" stroke-miterlimit="10" stroke-linecap="round" stroke-linejoin="round"/>
<path d="M84.2461 70.1049C84.2461 70.1049 86.1931 63.6561 86.5579 61.7091C86.9227 59.7621 87.8965 57.9369 87.8965 57.9369V62.6823C87.8965 62.6823 89.3569 60.9789 90.9385 58.9101C92.5201 56.8413 93.9805 56.9631 93.3721 59.1537C92.7637 61.3443 91.1821 63.7779 91.0603 64.1427C90.9385 64.5075 90.3301 67.1847 89.5999 68.7663C88.8697 70.3479 87.0445 72.4167 87.0445 72.4167L84.2461 70.1049Z" fill="white" stroke="#302F31" stroke-miterlimit="10" stroke-linecap="round" stroke-linejoin="round"/>
<path d="M76.3359 74.9721L84.2451 70.1049C84.2451 70.1049 86.4351 69.8613 87.0435 72.4167C87.6519 74.9721 87.2871 73.5117 87.2871 73.5117L81.0813 82.2729L76.3359 74.9721Z" fill="white" stroke="#302F31" stroke-miterlimit="10" stroke-linecap="round" stroke-linejoin="round"/>
<path d="M75.2405 71.8079C75.2405 71.8079 69.2783 65.6021 67.8179 66.0887C66.3575 66.5753 67.0877 69.1307 67.0877 69.1307C67.0877 69.1307 63.5591 67.7921 63.4373 68.7659C63.3155 69.7391 63.3155 69.7391 63.3155 69.7391C63.3155 69.7391 56.9879 73.5113 55.2845 77.5265C53.5811 81.5417 53.3375 85.4357 55.2845 87.6257C57.2315 89.8157 61.9769 97.6037 61.9769 97.6037L62.0987 101.376L74.1449 104.418L75.2399 99.3071C75.2399 99.3071 80.9591 99.3071 81.4457 98.4551C81.9323 97.6031 82.1759 88.2341 82.1759 88.2341L84.7313 85.0703C84.7313 85.0703 80.1077 79.7165 79.3775 78.1343C78.6479 76.5539 76.7009 73.6331 75.2405 71.8079Z" fill="white" stroke="#302F31" stroke-miterlimit="10" stroke-linecap="round" stroke-linejoin="round"/>
<path d="M81.439 90.6066C81.439 90.6066 80.872 91.3632 79.3594 89.8506" stroke="#302F31" stroke-miterlimit="10" stroke-linecap="round" stroke-linejoin="round"/>
<path d="M75.2405 71.8079C75.2405 71.8079 69.2783 65.6021 67.8179 66.0887C66.3575 66.5753 67.0877 69.1307 67.0877 69.1307C67.0877 69.1307 63.5591 67.7921 63.4373 68.7659C63.3155 69.7391 63.3155 69.7391 63.3155 69.7391C63.3155 69.7391 56.9879 73.5113 55.2845 77.5265C53.5811 81.5417 53.3375 85.4357 55.2845 87.6257C56.7893 89.3189 59.9651 94.3541 61.3301 96.5537C62.1623 96.6425 63.0083 96.6497 63.8021 96.5081C67.2089 95.8997 69.5213 92.0057 69.5213 92.0057C69.5213 92.0057 67.2095 91.2755 67.0877 88.2335C66.9659 85.1915 68.9129 84.5831 68.9129 84.5831C68.9129 84.5831 70.6163 86.5301 72.0767 85.6781C73.5371 84.8261 70.2515 83.2445 69.7649 82.0277C69.2783 80.8109 70.4951 79.1075 70.7381 78.2555C70.9811 77.4035 68.4263 77.6471 67.4525 77.1605C66.4793 76.6739 71.7113 74.2403 72.8063 73.5101C73.9013 72.7799 71.5895 73.2665 70.2509 72.5369C68.9135 71.8079 75.2405 71.8079 75.2405 71.8079Z" fill="#302F31" stroke="#302F31" stroke-miterlimit="10" stroke-linecap="round" stroke-linejoin="round"/>
<path d="M78.6157 81.0552C78.8521 81.72 78.8125 82.341 78.5281 82.4424C78.2437 82.5438 77.8207 82.0872 77.5843 81.4218C77.3479 80.757 77.3869 80.136 77.6719 80.0346C77.9569 79.9332 78.3793 80.3898 78.6157 81.0552Z" fill="#302F31"/>
<path d="M75.8477 79.1085C75.8477 79.1085 76.3343 75.7017 78.5249 77.1615" stroke="#302F31" stroke-miterlimit="10" stroke-linecap="round" stroke-linejoin="round"/>
<path d="M69.5234 92.0068L71.8352 91.3984L72.4436 93.2236" stroke="#302F31" stroke-miterlimit="10" stroke-linecap="round" stroke-linejoin="round"/>
<path d="M58.9364 99.0654C59.3012 99.0654 78.2834 105.028 78.2834 105.028L78.6482 110.625L58.4492 104.541L58.9364 99.0654Z" fill="#A1A1AA" stroke="#302F31" stroke-miterlimit="10" stroke-linecap="round" stroke-linejoin="round"/>
<path d="M62.4645 125.956C62.4645 125.956 85.0971 135.813 91.3029 136.421C97.5087 137.029 125.617 107.826 125.617 107.826L122.331 103.567C122.331 103.567 99.3339 115.371 96.5349 116.344C93.7365 117.317 70.4955 109.895 68.7915 109.53C67.0881 109.165 63.3159 109.773 61.8555 111.72" fill="#A1A1AA"/>
<path d="M62.4645 125.956C62.4645 125.956 85.0971 135.813 91.3029 136.421C97.5087 137.029 125.617 107.826 125.617 107.826L122.331 103.567C122.331 103.567 99.3339 115.371 96.5349 116.344C93.7365 117.317 70.4955 109.895 68.7915 109.53C67.0881 109.165 63.3159 109.773 61.8555 111.72" stroke="#302F31" stroke-miterlimit="10" stroke-linecap="round" stroke-linejoin="round"/>
<path d="M69.7652 129.12L60.8828 129.85" stroke="#302F31" stroke-miterlimit="10" stroke-linecap="round" stroke-linejoin="round"/>
<path d="M119.531 105.636L123.182 110.138" stroke="#302F31" stroke-miterlimit="10" stroke-linecap="round" stroke-linejoin="round"/>
<path d="M122.332 103.567L125.739 98.8218C125.739 98.8218 126.956 95.1714 127.199 94.4412C127.443 93.711 129.755 92.1294 130.485 91.1556C131.215 90.1824 131.945 87.9918 132.675 88.6002C133.405 89.2086 133.283 90.5472 133.04 91.1556C132.796 91.764 131.579 93.1026 131.458 93.711C131.336 94.3194 138.759 92.3724 138.759 92.3724C138.759 92.3724 139.976 92.7372 139.611 93.711C139.246 94.6842 138.029 96.2664 138.029 96.2664C138.029 96.2664 136.569 100.89 135.474 101.986C134.379 103.081 129.268 104.541 129.268 104.541L125.618 107.827L122.332 103.567Z" fill="white" stroke="#302F31" stroke-miterlimit="10" stroke-linecap="round" stroke-linejoin="round"/>
</svg>
