<svg width="20" height="20" viewBox="0 0 20 20" fill="none" xmlns="http://www.w3.org/2000/svg">
<path d="M19.3312 9.98154C19.3312 15.1453 15.145 19.3315 9.98129 19.3315C4.81761 19.3315 0.631348 15.1452 0.631348 9.98154C0.631348 4.81785 4.81761 0.631592 9.98129 0.631592C15.145 0.631592 19.3312 4.8178 19.3312 9.98154Z" fill="#84CC16"/>
<path d="M17.0916 9.98153C17.0916 13.908 13.9076 17.0961 9.97712 17.0961C6.04659 17.0961 2.8667 13.9079 2.8667 9.98153C2.8667 6.05516 6.05486 2.867 9.98123 2.867C13.9076 2.867 17.0916 6.05511 17.0916 9.98153Z" fill="#4D7C0F"/>
<path d="M3.81104 6.44285C5.04009 4.30643 7.34151 2.867 9.98109 2.867C13.9075 2.867 17.0956 6.051 17.0956 9.98153C17.0956 10.6043 17.0131 11.2065 16.8647 11.7839C16.9554 11.3261 17.0049 10.8559 17.0049 10.3734C17.0049 6.40574 13.7879 3.19285 9.82435 3.19285C7.30435 3.19279 5.09367 4.48785 3.81104 6.44285Z" fill="#4D7C0F"/>
<path d="M16.1389 13.5285C14.9098 15.6649 12.6084 17.1043 9.96882 17.1043C6.0424 17.1043 2.8584 13.9203 2.8584 9.98981C2.8584 9.36702 2.94087 8.76486 3.08935 8.18744C2.99861 8.64523 2.94914 9.11544 2.94914 9.59797C2.94914 13.5656 6.16614 16.7785 10.1297 16.7785C12.6455 16.7785 14.8562 15.4876 16.1389 13.5285Z" fill="#ECFCCB"/>
<path opacity="0.34" d="M7.58524 15.7433C6.75213 15.4134 5.97671 14.906 5.32097 14.2173L14.6379 5.58909C15.2731 6.29435 15.7185 7.10688 15.9824 7.96472L7.58524 15.7433ZM10.695 16.1392C11.9736 15.9825 13.215 15.4381 14.2296 14.4977C15.2483 13.5574 15.8835 12.3613 16.1392 11.0992L10.695 16.1392ZM9.48245 3.51456L3.39487 9.14846C3.3165 9.84546 3.3536 10.5549 3.50624 11.2436L11.5611 3.78262C10.8847 3.5764 10.1836 3.48977 9.48245 3.51456ZM4.3146 12.8274C4.40534 12.9965 4.50434 13.1656 4.61155 13.3265L13.8048 4.81377C13.6521 4.69414 13.4913 4.58283 13.3304 4.47967L4.3146 12.8274Z" fill="#65A30D"/>
<path d="M7.21045 14.4737V5.57898H10.5472C11.2308 5.57898 11.8043 5.70638 12.2677 5.96118C12.7341 6.21597 13.086 6.56632 13.3235 7.01221C13.5639 7.45521 13.6841 7.95902 13.6841 8.52362C13.6841 9.09402 13.5639 9.60072 13.3235 10.0437C13.0831 10.4867 12.7283 10.8356 12.2591 11.0904C11.7898 11.3423 11.212 11.4683 10.5255 11.4683H8.31402V10.1436H10.3083C10.708 10.1436 11.0353 10.0741 11.2902 9.93514C11.5451 9.79616 11.7333 9.60506 11.855 9.36185C11.9795 9.11863 12.0418 8.83922 12.0418 8.52362C12.0418 8.20802 11.9795 7.93006 11.855 7.68974C11.7333 7.44942 11.5436 7.26267 11.2858 7.12948C11.0309 6.99339 10.7022 6.92535 10.2996 6.92535H8.82235V14.4737H7.21045Z" fill="#A3E635"/>
</svg>
